<svg width="91" height="91" fill="none" xmlns="http://www.w3.org/2000/svg"><rect width="91" height="91" rx="45.5" fill="#FAC663"/><path d="M47.159 46.617c3.275 0 5.955 3.443 5.955 4.303 0 .86-2.68 3.73-5.955 3.73-3.276 0-5.657-3.73-5.657-3.73s2.381-4.303 5.657-4.303z" fill="#FFFDFB"/><path d="M37.928 47.478l3.574 3.442m0 0l-3.574 3.443m3.574-3.443s2.381 3.73 5.657 3.73c3.275 0 5.955-2.87 5.955-3.73 0-.86-2.68-4.303-5.955-4.303-3.276 0-5.657 4.303-5.657 4.303z" stroke="#FFFDFB" stroke-width="2" stroke-linecap="round" stroke-linejoin="round"/><path d="M32.481 34.607h0c.44-.05.786-.35.893-.735.217-.78.97-1.346 1.69-1.683.734-.345 1.617-.538 2.298-.427h0c.438.072.866-.123 1.085-.472h0c.38-.604 1.045-1.013 1.729-1.207.684-.195 1.47-.199 2.126.11h0a1.1 1.1 0 001.188-.162h0c.538-.474 1.296-.684 2.009-.684.713 0 1.471.209 2.011.684h0a1.1 1.1 0 001.188.162c.655-.309 1.587-.3 2.388-.12.412.093.82.237 1.174.431.35.192.677.45.888.786h0c.22.349.647.544 1.085.472L32.48 34.607zm0 0a.973.973 0 00-.37.14 3.445 3.445 0 00-.313.217 9.138 9.138 0 00-.753.649c-.525.501-1.118 1.16-1.44 1.752l-.403.74h32.596l-.404-.74A13.344 13.344 0 0059.695 35a2.999 2.999 0 00-.21-.207 1.08 1.08 0 00-.112-.088l-.002-.001a.584.584 0 00-.257-.097h0a1.036 1.036 0 01-.893-.735h0m-25.74.735l25.74-.735m-23.883.268h0a2.034 2.034 0 01-1.691 1.454 2.461 2.461 0 00-.245.166 9.848 9.848 0 00-1.393 1.345h29.055a14.25 14.25 0 00-.628-.864 9.11 9.11 0 00-.472-.56 2.744 2.744 0 00-.099-.1 2.03 2.03 0 01-1.607-1.441c-.094-.339-.502-.737-1.143-1.041-.624-.296-1.297-.419-1.72-.35h-.001a2.076 2.076 0 01-2.093-.927c-.089-.142-.26-.297-.522-.441a3.533 3.533 0 00-.912-.332c-.7-.157-1.375-.125-1.743.049h0a2.1 2.1 0 01-2.275-.316L34.338 34.14zm0 0c.096-.347.508-.745 1.15-1.046m-1.15 1.046l1.15-1.046m22.733.778c-.213-.769-.96-1.337-1.677-1.676m1.677 1.676l-1.677-1.676m-21.056.898c.626-.293 1.298-.412 1.714-.345l-1.714.345zm21.056-.898c-.733-.348-1.619-.547-2.311-.434l2.31.434zm-34.202 6.691l-3.326 22.407c-.064.43.069.864.364 1.19.294.328.723.516 1.173.516h49.894c.45 0 .878-.188 1.173-.515.295-.328.428-.762.364-1.19M22.342 38.886l36.854-5.395c.311.1 3.134 1.017 3.85 4.112h4.075c.773 0 1.428.547 1.537 1.283l3.326 22.407M22.342 38.888c.11-.736.764-1.283 1.537-1.283h4.074l-5.611 1.283zm49.642 22.407l-.494.074a.957.957 0 01-.241.782c-.198.22-.49.35-.802.35H20.553a1.08 1.08 0 01-.802-.35.956.956 0 01-.24-.782h0l3.326-22.407h0c.07-.477.503-.857 1.042-.857h4.471l.09-.387c.648-2.805 3.215-3.652 3.515-3.748l.197-.063.095-.183c1.388-2.681 4.262-2.816 4.58-2.827l.203-.007.141-.146c1.698-1.764 3.998-1.782 5.231-1.477l.195.049.174-.1c2.15-1.232 4.364-.626 5.456 0l.174.1.195-.049c1.233-.305 3.532-.287 5.23 1.477l.141.146.203.007c.322.01 3.192.145 4.58 2.827l.096.183.197.063c.295.094 2.864.937 3.515 3.748l.09.387h4.472c.54 0 .972.38 1.042.857h0l3.327 22.407.495-.074zm-39.316-25.71h-.002.002zm4.534-2.835a2.075 2.075 0 002.092-.927c.213-.339.637-.63 1.155-.777.518-.147 1.044-.128 1.427.053a2.1 2.1 0 002.275-.316c.307-.271.805-.435 1.348-.435s1.041.163 1.35.435l-9.647 1.967zm-17.14 28.909l-.088.575h51.051l-.087-.575-3.479-22.862-.064-.424h-43.79l-.064.424-3.48 22.862z" fill="#FFFDFB" stroke="#FFFDFB"/></svg>