<svg width="298" height="317" viewBox="0 0 298 317" fill="none" xmlns="http://www.w3.org/2000/svg">
<path d="M210.22 126.921C172.406 137.219 136.342 92.9615 162.436 66.8676C173.69 55.6134 191.867 54.3107 206.99 60.76C241.917 75.6565 242.691 118.084 210.22 126.921Z" fill="#fac663" fill-opacity="0.2"/>
<path d="M180.54 146.655C209.404 117.792 266.923 158.027 247.538 193.484C238.704 209.637 215.716 215.062 195.1 203.572C171.987 190.698 164.314 162.881 180.54 146.655Z" fill="#fac663" fill-opacity="0.2"/>
<path d="M86.1138 67.0749C83.2104 72.1884 76.8082 80.0142 69.4646 87.5635C61.7082 95.5497 52.9046 103.228 46.1005 107.088C27.6986 117.489 17.7821 146.763 42.184 162.566C64.7449 177.173 77.9753 161.826 98.9663 176.059C120.17 190.454 141.992 185.813 154.181 172.28C165.461 159.754 168.486 139.609 155.104 119.913C140.839 98.9297 156.167 85.7389 141.56 63.1899C125.757 38.7562 96.4935 48.7664 86.1138 67.0749Z" fill="#fac663" fill-opacity="0.2"/>
<path d="M129.74 197.452C137.904 189.288 149.645 187.004 160.778 190.345C193.881 200.283 204.649 249.097 176.551 264.435C141.025 283.846 100.893 226.299 129.74 197.452Z" fill="#fac663" fill-opacity="0.2"/>
<path d="M83.7526 177.557C115.633 190.902 121.288 240.491 91.6162 252.781C55.8767 267.585 21.8756 211.292 49.6631 183.504C58.5807 174.587 71.6337 172.483 83.7526 177.557Z" fill="#fac663" fill-opacity="0.2"/>
</svg>
