<svg width="180" height="175" fill="none" xmlns="http://www.w3.org/2000/svg"><path d="M65.21 50.444c9.504 20.145-11.696 44.68-28.88 32.648-7.411-5.19-9.938-15.232-7.825-24.329 4.882-21.009 28.548-25.617 36.706-8.319zm13.98 14.665c-19.008-13.31-2.18-49.454 19.58-42.096 9.913 3.352 15.223 15.681 10.832 28.348-4.918 14.199-19.726 21.23-30.412 13.748z" fill="#FAC663" fill-opacity=".15"/><path d="M43.996 125.776c3.148 1.122 8.161 3.934 13.112 7.3 5.237 3.554 10.405 7.724 13.238 11.151 7.64 9.273 25.004 11.94 31.434-3.269 5.943-14.061-3.954-19.953 1.934-33.099 5.959-13.282 1.203-25.035-7.576-30.523-8.126-5.08-19.698-4.789-29.397 4.638-10.332 10.046-19.23 2.768-30.404 13.16-12.11 11.248-3.614 26.636 7.659 30.642zm68.646-37.242c-5.376-3.765-7.815-10.11-7.047-16.668 2.287-19.5 28.54-30.33 39.902-16.117 14.377 17.968-13.857 46.087-32.855 32.785z" fill="#FAC663" fill-opacity=".15"/><path d="M106.058 116.224c4.314-19.152 31.506-27.197 41.319-11.804 11.82 18.541-16.32 43.106-34.619 30.293-5.873-4.112-8.341-11.209-6.7-18.489z" fill="#FAC663" fill-opacity=".15"/></svg>