<svg width="100" height="135" fill="none" xmlns="http://www.w3.org/2000/svg"><path d="M44.487 42.239c11.937 14.598-.449 39.08-17.03 32.715C20.303 72.21 16.17 64.48 16.04 56.578c-.297-18.25 18.2-26.875 28.446-14.34zm14.49 9.182c-18.342-7.04-11.93-40.162 7.454-38.571 8.83.725 15.72 9.763 14.71 21.062-1.13 12.665-11.852 21.468-22.164 17.51z" fill="#FAC663" fill-opacity=".15"/><path d="M42.504 108.436c2.816.277 7.51 1.561 12.268 3.312 5.03 1.847 10.13 4.214 13.16 6.449 8.177 6.051 22.987 4.69 25.151-9.114 2-12.761-7.34-15.575-5.197-27.575 2.172-12.124-4.144-20.802-12.48-23.513-7.717-2.509-17.164.097-23.198 9.82C45.78 78.18 36.979 74.023 29.93 84.842c-7.643 11.713 2.491 22.611 12.573 23.595zm48.754-44.622c-5.188-1.991-8.492-6.702-9.205-12.245-2.12-16.48 17.226-30.742 29.473-21.396 15.493 11.814-1.935 40.678-20.267 33.641z" fill="#FAC663" fill-opacity=".15"/><path d="M91.526 87.898c-.382-16.609 20.306-28.776 31.522-18.144 13.51 12.807-4.569 38.734-22.228 31.956-5.667-2.176-9.15-7.498-9.294-13.812z" fill="#FAC663" fill-opacity=".15"/></svg>